<svg width="7" height="5" viewBox="0 0 7 5" fill="none" xmlns="http://www.w3.org/2000/svg">
<path d="M7.15841e-06 0.490983C-0.000288481 0.426739 0.00951863 0.363053 0.0288672 0.303578C0.0482159 0.244103 0.076725 0.190008 0.11276 0.144395C0.148904 0.0986408 0.191905 0.0623251 0.239284 0.0375422C0.286663 0.0127594 0.337481 -1.87935e-07 0.388807 -1.86487e-07C0.440134 -1.85039e-07 0.490952 0.0127594 0.538331 0.0375423C0.58571 0.0623251 0.628711 0.0986408 0.664855 0.144395L3.49921 3.70791L6.33356 0.144395C6.40677 0.0524738 6.50607 0.0008333 6.60961 0.000833303C6.66088 0.000833305 6.71164 0.0135111 6.75901 0.0381434C6.80637 0.0627758 6.84941 0.0988801 6.88566 0.144395C6.92191 0.189909 6.95066 0.243943 6.97028 0.303411C6.9899 0.362878 7 0.426616 7 0.490983C7 0.620979 6.95887 0.745651 6.88566 0.837572L3.77526 4.74279C3.73911 4.78855 3.69611 4.82486 3.64873 4.84965C3.60135 4.87443 3.55053 4.88719 3.49921 4.88719C3.44788 4.88719 3.39706 4.87443 3.34968 4.84965C3.30231 4.82486 3.2593 4.78855 3.22316 4.74279L0.11276 0.837571C0.076725 0.791958 0.0482159 0.737863 0.0288673 0.678388C0.00951863 0.618913 -0.00028848 0.555227 7.15841e-06 0.490983Z" fill="white"/>
</svg>
