<svg width="21" height="15" viewBox="0 0 21 15" fill="none" xmlns="http://www.w3.org/2000/svg">
<path d="M8.54094 0.263923C8.46229 0.106268 8.30323 0.00489397 8.12705 0C7.95332 0.00402003 7.79304 0.0942082 7.69918 0.240502L0.062903 13.6042C-0.0215173 13.7521 -0.020993 13.9337 0.0646508 14.0809C0.15012 14.2281 0.307425 14.3184 0.477664 14.3182H14.7959C14.9614 14.3184 15.1152 14.2329 15.2021 14.0921C15.2891 13.9514 15.297 13.7755 15.2229 13.6277L8.54094 0.263923Z" fill="black"/>
<path d="M20.9418 13.6126L15.2145 3.11272C15.1365 2.96904 14.9904 2.87536 14.8273 2.8647C14.6643 2.85386 14.5071 2.92744 14.4108 3.05941L12.3893 5.82588L16.6355 14.3182H20.5232C20.6915 14.3181 20.8474 14.2293 20.9332 14.0846C21.019 13.9398 21.0223 13.7605 20.9418 13.6126Z" fill="black"/>
</svg>
