<svg xmlns="http://www.w3.org/2000/svg" width="8" height="11" viewBox="0 0 8 11" fill="none">
  <path d="M6.90814 1.13766e-05C7.0091 -0.000454008 7.10918 0.0149574 7.20264 0.0453624C7.2961 0.0757675 7.38111 0.120567 7.45278 0.177194C7.52468 0.233991 7.58175 0.301564 7.62069 0.376018C7.65964 0.45047 7.67969 0.530327 7.67969 0.610983C7.67969 0.691638 7.65964 0.771496 7.62069 0.845948C7.58175 0.920401 7.52468 0.987974 7.45278 1.04477L1.85297 5.49875L7.45278 9.95274C7.59723 10.0678 7.67838 10.2238 7.67838 10.3865C7.67838 10.4671 7.65846 10.5469 7.61975 10.6213C7.58104 10.6957 7.5243 10.7634 7.45278 10.8203C7.38126 10.8773 7.29635 10.9225 7.2029 10.9533C7.10945 10.9841 7.00929 11 6.90814 11C6.70386 11 6.50795 10.9354 6.3635 10.8203L0.226727 5.93254C0.154829 5.87575 0.0977599 5.80817 0.0588152 5.73372C0.0198705 5.65927 -0.000179553 5.57941 -0.000179543 5.49875C-0.000179532 5.4181 0.0198705 5.33824 0.0588153 5.26379C0.09776 5.18934 0.154829 5.12176 0.226727 5.06497L6.3635 0.177194C6.43518 0.120567 6.52019 0.0757674 6.61365 0.0453624C6.70711 0.0149573 6.80719 -0.000454025 6.90814 1.13766e-05Z" fill="white"/>
</svg>