<svg width="16" height="16" viewBox="0 0 16 16" fill="none" xmlns="http://www.w3.org/2000/svg">
<path d="M0.476038 2.6928H7.72386C7.94231 3.68709 8.83024 4.43355 9.88918 4.43355C10.9481 4.43355 11.8361 3.68712 12.0545 2.6928H14.7572C15.0201 2.6928 15.2332 2.47965 15.2332 2.21676C15.2332 1.95387 15.0201 1.74072 14.7572 1.74072H12.0543C11.8354 0.746933 10.9463 0 9.88918 0C8.83154 0 7.94281 0.746814 7.72404 1.74072H0.476038C0.213146 1.74072 0 1.95387 0 2.21676C0 2.47965 0.213146 2.6928 0.476038 2.6928ZM8.62453 2.21801C8.62453 2.21631 8.62456 2.21459 8.62456 2.21289C8.62664 1.51767 9.19393 0.952106 9.88918 0.952106C10.5835 0.952106 11.1508 1.5169 11.1538 2.21179L11.1539 2.21878C11.1528 2.9152 10.5859 3.4815 9.88918 3.4815C9.1928 3.4815 8.62607 2.91576 8.6245 2.21976L8.62453 2.21801ZM14.7572 12.5551H12.0543C11.8354 11.5614 10.9463 10.8144 9.88918 10.8144C8.83154 10.8144 7.94281 11.5613 7.72404 12.5551H0.476038C0.213146 12.5551 0 12.7683 0 13.0312C0 13.2941 0.213146 13.5072 0.476038 13.5072H7.72386C7.94231 14.5015 8.83024 15.248 9.88918 15.248C10.9481 15.248 11.8361 14.5015 12.0545 13.5072H14.7572C15.0201 13.5072 15.2332 13.2941 15.2332 13.0312C15.2332 12.7683 15.0201 12.5551 14.7572 12.5551ZM9.88918 14.2959C9.1928 14.2959 8.62607 13.7302 8.6245 13.0342L8.62453 13.0324C8.62453 13.0307 8.62456 13.029 8.62456 13.0273C8.62664 12.3321 9.19393 11.7665 9.88918 11.7665C10.5835 11.7665 11.1508 12.3313 11.1538 13.0262L11.1539 13.0331C11.1529 13.7296 10.5859 14.2959 9.88918 14.2959ZM14.7572 7.14795H7.50935C7.29091 6.15365 6.40298 5.40723 5.34403 5.40723C4.28509 5.40723 3.39716 6.15365 3.17871 7.14795H0.476038C0.213146 7.14795 0 7.36109 0 7.62399C0 7.88691 0.213146 8.10002 0.476038 8.10002H3.17895C3.39784 9.09378 4.28696 9.84074 5.34403 9.84074C6.40167 9.84074 7.2904 9.0939 7.50917 8.10002H14.7572C15.0201 8.10002 15.2332 7.88691 15.2332 7.62399C15.2332 7.36109 15.0201 7.14795 14.7572 7.14795ZM6.60869 7.62274C6.60869 7.62446 6.60866 7.62616 6.60866 7.62785C6.60657 8.32308 6.03929 8.88864 5.34403 8.88864C4.64976 8.88864 4.08244 8.32385 4.07944 7.62898L4.07935 7.62202C4.08039 6.92552 4.64732 6.3593 5.34403 6.3593C6.04042 6.3593 6.60714 6.92501 6.60872 7.62104L6.60869 7.62274Z" fill="white"/>
</svg>
