<svg xmlns="http://www.w3.org/2000/svg" width="16" height="17" viewBox="0 0 16 17" fill="none">
  <path fill-rule="evenodd" clip-rule="evenodd" d="M0.885557 7.24285L4.57227 6.11571C3.61276 5.35334 2.65319 4.59091 1.69364 3.82851L0 4.34631L0.885557 7.24285ZM0.885557 7.24285H15.6815V15.7215C15.6815 16.3302 15.1834 16.8283 14.5746 16.8283H1.99245C1.38367 16.8283 0.885557 16.3302 0.885557 15.7215V7.24285ZM10.0098 12.0356L8.28351 11.0389L6.55726 10.0423V12.0356V14.0289L8.28351 13.0322L10.0098 12.0356ZM5.87203 5.71831C4.91249 4.9559 3.95291 4.1935 2.9934 3.4311L5.73711 2.59228C6.69662 3.35468 7.65622 4.11705 8.6157 4.87949L5.87203 5.71831ZM9.91549 4.48212L12.6592 3.6433L12.5761 3.5773L9.7806 1.35606L7.0369 2.19491C7.99641 2.95731 8.95595 3.71971 9.91549 4.48212ZM13.959 3.24589C12.9994 2.48349 12.0399 1.72109 11.0804 0.958688L14.2161 0L15.1017 2.89654L13.959 3.24589Z" fill="black"/>
</svg>