<svg width="18" height="18" viewBox="0 0 18 18" fill="none" xmlns="http://www.w3.org/2000/svg">
<path d="M12 10.1458V2.99999C12 1.34314 10.6568 0 9 0C7.34316 0 6.00001 1.34314 6.00001 2.99999V10.1458C5.07938 10.9698 4.5 12.1673 4.5 13.5C4.5 15.9853 6.51473 18 9 18C11.4853 18 13.5 15.9853 13.5 13.5C13.5 12.1673 12.9206 10.9698 12 10.1458ZM9 16.5C7.34316 16.5 6.00001 15.1568 6.00001 13.5C6.00001 12.6339 6.36708 11.8304 7.00038 11.2635L7.50002 10.8163V2.99999C7.50002 2.17157 8.17161 1.49998 9.00004 1.49998C9.82846 1.49998 10.5 2.17153 10.5 2.99999V10.8163L10.9997 11.2635C11.633 11.8304 12.0001 12.6338 12.0001 13.5C12 15.1568 10.6568 16.5 9 16.5Z" fill="black"/>
<path d="M9.75001 6H8.25V15H9.75001V6Z" fill="black"/>
<path d="M9 15.75C10.2426 15.75 11.25 14.7426 11.25 13.5C11.25 12.2574 10.2426 11.25 9 11.25C7.75736 11.25 6.75 12.2574 6.75 13.5C6.75 14.7426 7.75736 15.75 9 15.75Z" fill="black"/>
</svg>
