<svg xmlns="http://www.w3.org/2000/svg" width="16" height="16" viewBox="0 0 16 16" fill="none">
  <path d="M7.52019 7.16208C9.49794 7.16208 11.1012 5.5588 11.1012 3.58104C11.1012 1.60329 9.49794 0 7.52019 0C5.54243 0 3.93915 1.60329 3.93915 3.58104C3.93915 5.5588 5.54243 7.16208 7.52019 7.16208Z" fill="black"/>
  <path d="M8.2794 7.8783H6.76104C5.87035 7.88111 4.98894 8.05934 4.16712 8.4028C3.34531 8.74625 2.5992 9.24822 1.97138 9.88003C1.34356 10.5118 0.846333 11.2611 0.508089 12.0851C0.169845 12.9091 -0.00279194 13.7916 3.41438e-05 14.6823C3.41438e-05 14.7773 0.0377629 14.8683 0.10492 14.9355C0.172078 15.0027 0.263163 15.0404 0.358138 15.0404H14.6823C14.7817 15.0313 14.874 14.9849 14.9404 14.9104C15.0069 14.836 15.0426 14.7391 15.0404 14.6393C15.0366 12.8473 14.3231 11.1298 13.056 9.86273C11.7889 8.59561 10.0714 7.88208 8.2794 7.8783Z" fill="black"/>
</svg>