<svg width="322" height="181" viewBox="0 0 322 181" fill="none" xmlns="http://www.w3.org/2000/svg">
<path d="M83.4173 4.8C86.2653 4.8 87.9933 6.24 87.9933 8.64C87.9933 11.024 86.2653 12.464 83.4173 12.464H80.4093V16H79.2253V4.8H83.4173ZM83.3853 11.424C85.6253 11.424 86.8093 10.4 86.8093 8.64C86.8093 6.848 85.6253 5.824 83.3853 5.824H80.4093V11.424H83.3853ZM93.0334 16V4.8H94.2174V14.976H100.489V16H93.0334ZM113.335 16L111.991 13.008H105.751L104.407 16H103.175L108.295 4.8H109.463L114.583 16H113.335ZM106.183 12.048H111.559L108.871 6.032L106.183 12.048ZM127.107 4.8H128.275V16H127.299L120.099 6.912V16H118.915V4.8H119.891L127.107 13.888V4.8ZM135.595 14.976H142.331V16H134.411V4.8H142.091V5.824H135.595V9.808H141.387V10.816H135.595V14.976ZM149.77 16V5.824H145.834V4.8H154.89V5.824H150.954V16H149.77ZM169.017 16.096C167.337 16.096 165.689 15.504 164.857 14.64L165.321 13.728C166.121 14.512 167.545 15.088 169.017 15.088C171.113 15.088 172.025 14.208 172.025 13.104C172.025 10.032 165.129 11.92 165.129 7.776C165.129 6.128 166.409 4.704 169.257 4.704C170.521 4.704 171.833 5.072 172.729 5.696L172.329 6.64C171.369 6.016 170.249 5.712 169.257 5.712C167.209 5.712 166.297 6.624 166.297 7.744C166.297 10.816 173.193 8.96 173.193 13.04C173.193 14.688 171.881 16.096 169.017 16.096ZM179.437 14.976H186.173V16H178.253V4.8H185.933V5.824H179.437V9.808H185.229V10.816H179.437V14.976ZM199.804 16L198.46 13.008H192.22L190.876 16H189.644L194.764 4.8H195.932L201.052 16H199.804ZM192.652 12.048H198.028L195.34 6.032L192.652 12.048ZM214.329 16H213.033L210.473 12.4C210.185 12.432 209.897 12.448 209.577 12.448H206.569V16H205.385V4.8H209.577C212.425 4.8 214.153 6.24 214.153 8.64C214.153 10.4 213.225 11.632 211.593 12.16L214.329 16ZM209.545 11.44C211.785 11.44 212.969 10.4 212.969 8.64C212.969 6.848 211.785 5.824 209.545 5.824H206.569V11.44H209.545ZM224.291 16.096C220.931 16.096 218.435 13.68 218.435 10.4C218.435 7.12 220.931 4.704 224.307 4.704C225.939 4.704 227.411 5.248 228.403 6.336L227.651 7.088C226.739 6.16 225.619 5.76 224.339 5.76C221.635 5.76 219.603 7.744 219.603 10.4C219.603 13.056 221.635 15.04 224.339 15.04C225.619 15.04 226.739 14.64 227.651 13.696L228.403 14.448C227.411 15.536 225.939 16.096 224.291 16.096ZM241.599 4.8H242.767V16H241.599V10.832H234.591V16H233.407V4.8H234.591V9.792H241.599V4.8Z" fill="white"/>
<path fill-rule="evenodd" clip-rule="evenodd" d="M0 81.8297V104.251H65.5847C73.2078 104.251 82.9473 97.2019 82.9473 85.5411C82.9473 80.8513 84.7409 77.7921 79.2287 71.5887L70.8399 61.649C66.0331 57.1648 71.4142 57.1648 75.4517 57.1648H103.142V104.251H125.102V57.1648H154.7V37H58.8584C47.1976 37 41.4958 48.1963 41.8166 54.0258C42.1392 59.8553 43.2115 67.1896 52.9013 76.0002C61.7403 84.0346 48.5252 81.8297 47.1976 81.8297H0ZM203.259 37H167.832L147.972 104.253H170.074L173.659 94.8357H196.977L200.439 104.253H222.089L203.259 37ZM178.594 78.6908L186.217 54.0258L193.394 78.6908H178.594ZM292.048 81.8297C283.528 81.8297 283.528 78.6908 283.528 78.6908C290.828 78.6908 297.301 68.0545 297.301 57.1648C297.301 46.2751 286.667 37 278.143 37H230.481V104.253H254.7V81.8315C254.7 81.8315 265.012 93.9388 270.393 98.8715C275.775 103.804 276.222 104.253 283.526 104.253H321.543V81.8315C321.546 81.8297 300.568 81.8297 292.048 81.8297ZM270.074 66.135H254.703V54.0258H270.074C277.121 54.0258 278.34 66.135 270.074 66.135ZM0 112.771H24.7766L31.0545 135.195L36.884 112.771H62.8942L69.6205 135.195L76.3486 112.771H97.8728L78.1405 180.039H58.4099L49.7641 148.198L40.0229 180.039H19.844L0 112.771ZM148.722 113.159H113.295L93.4364 180.41H115.537L119.124 170.995H142.444L145.905 180.41H167.557L148.722 113.159ZM124.058 154.848L131.682 130.183L138.856 154.848H124.058ZM292.495 132.953C288.462 132.953 284.065 133.425 288.874 137.907L297.264 147.849C302.775 154.052 302.686 156.638 302.686 161.331C302.686 172.99 291.151 180.039 283.528 180.039L230.54 180.395C223.239 180.395 222.793 179.949 217.41 175.016C212.03 170.084 201.715 157.974 201.715 157.974V180.395H177.5V113.145H225.162C233.682 113.145 244.32 122.422 244.32 133.31C244.32 144.201 237.847 154.835 230.543 154.835C230.543 154.835 233.755 158.065 239.136 158.065C244.519 158.065 265.238 158.086 265.238 158.086C266.564 158.086 279.777 160.291 270.94 152.257C261.25 143.446 260.178 136.115 259.856 130.286C259.533 124.456 264.574 112.773 276.229 112.773H321.55V132.955L292.495 132.953ZM217.087 142.278H201.713V130.169H217.087C224.136 130.169 225.354 142.278 217.087 142.278Z" fill="white"/>
</svg>
